<?xml version="1.0" encoding="UTF-8"?>
<svg version="1.1" xmlns="http://www.w3.org/2000/svg" width="24" height="24">
<path d="M0 0 C1.48831242 0.00667405 2.97660807 0.01863442 4.46484375 0.03515625 C5.22345703 0.03966797 5.98207031 0.04417969 6.76367188 0.04882812 C8.64326246 0.06064945 10.52281274 0.07858547 12.40234375 0.09765625 C13.1321268 3.51671857 13.50238086 6.59635754 13.40234375 10.09765625 C12.08234375 9.76765625 10.76234375 9.43765625 9.40234375 9.09765625 C9.40234375 9.75765625 9.40234375 10.41765625 9.40234375 11.09765625 C10.72234375 11.09765625 12.04234375 11.09765625 13.40234375 11.09765625 C13.52734375 14.47265625 13.52734375 14.47265625 13.40234375 18.09765625 C11.40234375 20.09765625 11.40234375 20.09765625 9.02734375 20.47265625 C5.65071093 19.99028013 4.55847519 18.65307129 2.40234375 16.09765625 C1.74234375 16.75765625 1.08234375 17.41765625 0.40234375 18.09765625 C-2.22265625 17.72265625 -2.22265625 17.72265625 -4.59765625 17.09765625 C-4.62450304 14.45175611 -4.64441982 11.80612529 -4.66015625 9.16015625 C-4.66853516 8.40541016 -4.67691406 7.65066406 -4.68554688 6.87304688 C-4.69418066 4.94771312 -4.64989958 3.02230044 -4.59765625 1.09765625 C-3.59765625 0.09765625 -3.59765625 0.09765625 0 0 Z M0.40234375 5.09765625 C0.40234375 5.75765625 0.40234375 6.41765625 0.40234375 7.09765625 C1.06234375 7.09765625 1.72234375 7.09765625 2.40234375 7.09765625 C2.40234375 6.43765625 2.40234375 5.77765625 2.40234375 5.09765625 C1.74234375 5.09765625 1.08234375 5.09765625 0.40234375 5.09765625 Z M4.40234375 6.09765625 C3.99505147 8.41922222 3.65795698 10.75453495 3.40234375 13.09765625 C4.06234375 13.09765625 4.72234375 13.09765625 5.40234375 13.09765625 C5.52609375 12.29328125 5.64984375 11.48890625 5.77734375 10.66015625 C5.98359375 9.81453125 6.18984375 8.96890625 6.40234375 8.09765625 C7.06234375 7.76765625 7.72234375 7.43765625 8.40234375 7.09765625 C8.40234375 6.43765625 8.40234375 5.77765625 8.40234375 5.09765625 C6.32780815 4.94858505 6.32780815 4.94858505 4.40234375 6.09765625 Z M0.40234375 11.09765625 C0.40234375 11.75765625 0.40234375 12.41765625 0.40234375 13.09765625 C1.06234375 13.09765625 1.72234375 13.09765625 2.40234375 13.09765625 C2.40234375 12.43765625 2.40234375 11.77765625 2.40234375 11.09765625 C1.74234375 11.09765625 1.08234375 11.09765625 0.40234375 11.09765625 Z " fill="#42954F" transform="translate(7.59765625,2.90234375)"/>
</svg>
