<svg width="96" height="96" version="1.1" xmlns="http://www.w3.org/2000/svg" desc="Created with imagetracer.js version 1.2.6" ><path fill="rgb(66,149,78)" stroke="rgb(66,149,78)" stroke-width="1" opacity="0.984313725490196" d="M 67.5 23 L 66.5 25 L 67.5 23 Z " /><path fill="rgb(66,149,78)" stroke="rgb(66,149,78)" stroke-width="1" opacity="0.984313725490196" d="M 21.5 36 L 20.5 38 L 21.5 36 Z " /><path fill="rgb(66,149,78)" stroke="rgb(66,149,78)" stroke-width="1" opacity="0.984313725490196" d="M 66.5 43 L 68.5 46 L 66.5 43 Z " /><path fill="rgb(66,149,78)" stroke="rgb(66,149,78)" stroke-width="1" opacity="0.984313725490196" d="M 81.5 43 L 80.5 45 L 81.5 43 Z " /><path fill="rgb(66,149,78)" stroke="rgb(66,149,78)" stroke-width="1" opacity="0.984313725490196" d="M 29.5 51 L 28.5 53 L 29.5 51 Z " /><path fill="rgb(66,149,78)" stroke="rgb(66,149,78)" stroke-width="1" opacity="0.984313725490196" d="M 37.5 77 L 35.5 80 L 37.5 77 Z " /><path fill="rgb(0,0,0)" stroke="rgb(0,0,0)" stroke-width="1" opacity="0" d="M 0 0 L 96 0 L 96 96 L 0 96 L 0 0 Z M 41 9 L 39 10 L 35 15 L 35 52 Q 40 53 42 49 L 43 49 L 43 23 L 47 22 L 48 20 L 49 17 L 92 17 Q 95 15 93 10 L 91 9 L 41 9 Z M 74 19 L 68 21 Q 63 24 61 31 Q 60 40 64 45 L 70 48 L 82 47 L 87 39 Q 88 30 85 26 Q 82 20 74 19 Z M 49 29 L 46 30 L 45 34 L 49 39 L 54 38 L 55 36 L 54 31 Q 53 28 49 29 Z M 30 30 L 23 33 L 17 39 L 3 61 L 3 86 L 6 87 L 28 87 L 31 86 L 49 71 L 63 56 L 63 51 L 61 47 L 55 45 L 51 46 L 48 49 L 45 49 L 33 57 L 30 56 L 33 52 L 33 31 L 30 30 Z M 65 51 L 64 57 L 65 59 L 91 59 Q 94 58 93 52 L 91 51 L 65 51 Z " /><path fill="rgb(66,149,78)" stroke="rgb(66,149,78)" stroke-width="1" opacity="0.9372549019607843" d="M 19.5 38 L 18.5 40 L 19.5 38 Z " /><path fill="rgb(66,149,78)" stroke="rgb(66,149,78)" stroke-width="1" opacity="0.9372549019607843" d="M 59.5 57 L 55.5 62 L 59.5 57 Z " /><path fill="rgb(66,149,78)" stroke="rgb(66,149,78)" stroke-width="1" opacity="0.9372549019607843" d="M 4.5 63 L 5 82.5 L 4 82.5 L 4.5 63 Z " /><path fill="rgb(66,149,78)" stroke="rgb(66,149,78)" stroke-width="1" opacity="0.9372549019607843" d="M 42.5 73 L 40.5 76 L 42.5 73 Z " /><path fill="rgb(66,149,78)" stroke="rgb(66,149,78)" stroke-width="1" opacity="0.9372549019607843" d="M 34.5 80 L 33.5 82 L 34.5 80 Z " /><path fill="rgb(70,151,81)" stroke="rgb(70,151,81)" stroke-width="1" opacity="0.20392156862745098" d="M 40.5 9 L 90.5 9 L 93 10 Q 94.5 15.4 91.5 17 L 48 16.5 L 89.5 16 L 92 13.5 L 90.5 10 L 40.5 10 L 36 14.5 L 36 50.5 L 37.5 51 L 42 47.5 L 42 22.5 L 43.5 22 L 47 19.5 L 47.5 18 L 48 19.5 L 47 22 L 43 23 L 43 48.5 L 41.5 49 Q 39.6 52.6 35 52 L 35 14.5 L 38.5 10 L 40.5 9 Z " /><path fill="rgb(70,151,81)" stroke="rgb(70,151,81)" stroke-width="1" opacity="0.20392156862745098" d="M 69.5 20 L 71 20.5 L 64 25.5 Q 61 29.5 62 37.5 L 67.5 46 L 71 47.5 L 69.5 48 L 64 44.5 Q 59.9 40 61 30.5 Q 62.5 24 67.5 21 L 69.5 20 Z " /><path fill="rgb(70,151,81)" stroke="rgb(70,151,81)" stroke-width="1" opacity="0.20392156862745098" d="M 77.5 20 L 85 25.5 Q 88.1 29.9 87 38.5 L 81.5 47 L 77.5 48 L 77.5 47 L 83 43.5 Q 87.2 39.7 86 30.5 Q 84.8 24.8 80.5 22 Q 76.8 21.7 77.5 20 Z " /><path fill="rgb(70,151,81)" stroke="rgb(70,151,81)" stroke-width="1" opacity="0.20392156862745098" d="M 48.5 29 Q 53 28 54 30.5 L 55 35.5 L 54 38 L 48.5 39 L 46.5 36 Q 47.3 38.7 51.5 38 Q 54.8 37.3 54 32.5 Q 53.3 29.3 48.5 30 L 46 31.5 Q 45.3 29.3 47.5 30 L 48.5 29 Z " /><path fill="rgb(70,151,81)" stroke="rgb(70,151,81)" stroke-width="1" opacity="0.20392156862745098" d="M 29.5 30 L 33 30.5 L 33 51.5 L 30 55.5 L 32.5 57 L 44.5 49 L 46.5 49 L 46.5 50 L 33.5 58 L 30.5 58 Q 28.3 57.3 29 53.5 L 32 52 L 32 31.5 L 30.5 31 L 22.5 34 L 18 38.5 L 14.5 44 L 15 42.5 L 22.5 33 L 29.5 30 Z " /><path fill="rgb(70,151,81)" stroke="rgb(70,151,81)" stroke-width="1" opacity="0.20392156862745098" d="M 13.5 45 L 13 46.5 L 4 61.5 L 4 84.5 L 5.5 86 L 27.5 86 L 33.5 83 L 61 57.5 L 62 50.5 L 57 46.5 L 58.5 46 L 61 47 L 63 50.5 L 63 55.5 L 48.5 71 L 30.5 86 L 27.5 87 L 5.5 87 L 3 86 L 3 60.5 L 13.5 45 Z " /><path fill="rgb(70,151,81)" stroke="rgb(70,151,81)" stroke-width="1" opacity="0.20392156862745098" d="M 50.5 46 L 52 46.5 L 48.5 49 L 50.5 46 Z " /><path fill="rgb(70,151,81)" stroke="rgb(70,151,81)" stroke-width="1" opacity="0.20392156862745098" d="M 65 51 L 90.5 51 L 93 52 Q 94.3 57.5 90.5 59 L 64.5 59 L 64 56.5 L 65 51 Z M 66 52 L 65 57 L 66 58 L 91 58 L 92 55 L 90 52 L 66 52 Z " /><path fill="rgb(67,150,79)" stroke="rgb(67,150,79)" stroke-width="1" opacity="1" d="M 41.5 11 L 89.5 11 L 91 12.5 L 89.5 15 L 48.5 15 L 47 16.5 Q 47.5 20.5 44.5 21 L 41 21.5 L 41 47.5 L 37 49 L 37 15.5 L 39.5 12 L 41.5 11 Z " /><path fill="rgb(67,150,79)" stroke="rgb(67,150,79)" stroke-width="1" opacity="1" d="M 72.5 21 Q 79 21.3 82 24 L 85 30.5 L 85 37.5 L 77.5 47 L 70.5 47 L 65 41.5 Q 62.3 38.2 63 31.5 Q 64.5 25 69.5 22 L 72.5 21 Z " /><path fill="rgb(67,150,79)" stroke="rgb(67,150,79)" stroke-width="1" opacity="1" d="M 48.5 31 Q 52.9 29.5 52 32.5 L 53 34.5 Q 52.5 37.5 48.5 37 Q 46.3 36.3 47 32.5 L 48.5 31 Z " /><path fill="rgb(67,150,79)" stroke="rgb(67,150,79)" stroke-width="1" opacity="1" d="M 30.5 32 L 31 51 L 28 52.5 Q 27 58 30.5 59 L 35.5 58 L 52.5 47 L 57.5 47 Q 61.7 48.3 61 54.5 L 56.5 60 Q 54.3 59.3 55 61.5 Q 43.7 74.2 29.5 84 L 26.5 85 L 6.5 85 L 5 83.5 L 5 62.5 L 19 39.5 L 24.5 34 L 30.5 32 Z " /><path fill="rgb(67,150,79)" stroke="rgb(67,150,79)" stroke-width="1" opacity="1" d="M 67 53 L 90.5 53 L 91 55.5 L 89.5 57 L 67 57 L 67 53 Z " /><path fill="rgb(66,149,78)" stroke="rgb(66,149,78)" stroke-width="1" opacity="0.7764705882352941" d="M 40.5 10 L 90.5 10 L 92 11.5 L 91.5 14 L 91 11 L 40.5 11 L 37 14.5 L 37.5 50 L 39 49.5 L 36 51 L 36 14.5 L 40.5 10 Z " /><path fill="rgb(66,149,78)" stroke="rgb(66,149,78)" stroke-width="1" opacity="0.7764705882352941" d="M 48.5 15 L 90 15.5 L 48.5 16 L 48.5 15 Z " /><path fill="rgb(66,149,78)" stroke="rgb(66,149,78)" stroke-width="1" opacity="0.7764705882352941" d="M 46.5 19 L 45.5 21 L 46.5 19 Z " /><path fill="rgb(66,149,78)" stroke="rgb(66,149,78)" stroke-width="1" opacity="0.7764705882352941" d="M 41.5 22 L 42 47.5 L 40 48.5 L 41 47.5 L 41.5 22 Z " /><path fill="rgb(66,149,78)" stroke="rgb(66,149,78)" stroke-width="1" opacity="0.7764705882352941" d="M 67.5 22 L 65 25.5 L 63.5 29 L 63 27.5 L 67.5 22 Z " /><path fill="rgb(66,149,78)" stroke="rgb(66,149,78)" stroke-width="1" opacity="0.7764705882352941" d="M 80.5 22 L 85 28.5 L 84 28.5 L 80.5 22 Z " /><path fill="rgb(66,149,78)" stroke="rgb(66,149,78)" stroke-width="1" opacity="0.7764705882352941" d="M 48.5 30 Q 53.3 29.3 54 32.5 Q 54.8 37.3 51.5 38 Q 46.8 38.8 46 35.5 L 46.5 32 L 48.5 37 Q 52.3 37.8 53 35.5 Q 53.8 31.8 51.5 31 Q 47.5 31.8 48.5 30 Z " /><path fill="rgb(66,149,78)" stroke="rgb(66,149,78)" stroke-width="1" opacity="0.7764705882352941" d="M 62.5 30 L 63 37.5 L 62 37.5 L 62.5 30 Z " /><path fill="rgb(66,149,78)" stroke="rgb(66,149,78)" stroke-width="1" opacity="0.7764705882352941" d="M 85.5 30 L 86 37.5 L 85 37.5 L 85.5 30 Z " /><path fill="rgb(66,149,78)" stroke="rgb(66,149,78)" stroke-width="1" opacity="0.7764705882352941" d="M 30.5 31 L 32 31.5 L 32 51.5 L 31 51.5 L 31 32.5 L 30.5 31 Z " /><path fill="rgb(66,149,78)" stroke="rgb(66,149,78)" stroke-width="1" opacity="0.7764705882352941" d="M 22.5 34 L 24 34.5 L 18.5 39 L 22.5 34 Z " /><path fill="rgb(66,149,78)" stroke="rgb(66,149,78)" stroke-width="1" opacity="0.7764705882352941" d="M 63.5 39 L 65 41.5 L 63 40.5 L 63.5 39 Z " /><path fill="rgb(66,149,78)" stroke="rgb(66,149,78)" stroke-width="1" opacity="0.7764705882352941" d="M 84.5 39 L 85 40.5 L 83 41.5 L 84.5 39 Z " /><path fill="rgb(66,149,78)" stroke="rgb(66,149,78)" stroke-width="1" opacity="0.7764705882352941" d="M 17.5 40 L 17 41.5 L 12.5 49 L 13 47.5 L 17.5 40 Z " /><path fill="rgb(66,149,78)" stroke="rgb(66,149,78)" stroke-width="1" opacity="0.7764705882352941" d="M 65.5 43 L 67.5 46 L 65.5 43 Z " /><path fill="rgb(66,149,78)" stroke="rgb(66,149,78)" stroke-width="1" opacity="0.7764705882352941" d="M 82.5 43 L 80.5 46 L 82.5 43 Z " /><path fill="rgb(66,149,78)" stroke="rgb(66,149,78)" stroke-width="1" opacity="0.7764705882352941" d="M 58.5 47 Q 63.3 48.2 62 55.5 L 56.5 62 L 60 57.5 L 61 50.5 L 58.5 47 Z " /><path fill="rgb(66,149,78)" stroke="rgb(66,149,78)" stroke-width="1" opacity="0.7764705882352941" d="M 11.5 50 L 10.5 52 L 11.5 50 Z " /><path fill="rgb(66,149,78)" stroke="rgb(66,149,78)" stroke-width="1" opacity="0.7764705882352941" d="M 45.5 50 L 44.5 52 L 45.5 50 Z " /><path fill="rgb(66,149,78)" stroke="rgb(66,149,78)" stroke-width="1" opacity="0.7764705882352941" d="M 66 52 L 90 52.5 L 67 53 L 66.5 55 L 66 52 Z " /><path fill="rgb(66,149,78)" stroke="rgb(66,149,78)" stroke-width="1" opacity="0.7764705882352941" d="M 40.5 53 L 39.5 55 L 40.5 53 Z " /><path fill="rgb(66,149,78)" stroke="rgb(66,149,78)" stroke-width="1" opacity="0.7764705882352941" d="M 8.5 55 L 7.5 57 L 8.5 55 Z " /><path fill="rgb(66,149,78)" stroke="rgb(66,149,78)" stroke-width="1" opacity="0.7764705882352941" d="M 35.5 56 L 34.5 58 L 35.5 56 Z " /><path fill="rgb(66,149,78)" stroke="rgb(66,149,78)" stroke-width="1" opacity="0.7764705882352941" d="M 65.5 56 L 66.5 57 L 91 57.5 L 65 58 L 65.5 56 Z " /><path fill="rgb(66,149,78)" stroke="rgb(66,149,78)" stroke-width="1" opacity="0.7764705882352941" d="M 5.5 60 L 5 61.5 L 4.5 63 L 4 61.5 L 5.5 60 Z " /><path fill="rgb(66,149,78)" stroke="rgb(66,149,78)" stroke-width="1" opacity="0.7764705882352941" d="M 54.5 62 L 43.5 74 L 54.5 62 Z " /><path fill="rgb(66,149,78)" stroke="rgb(66,149,78)" stroke-width="1" opacity="0.7764705882352941" d="M 39.5 76 L 33.5 83 L 31.5 84 L 32.5 82 L 39.5 76 Z " /><path fill="rgb(66,149,78)" stroke="rgb(66,149,78)" stroke-width="1" opacity="0.7764705882352941" d="M 4.5 83 L 5 85 L 27.5 85 L 29.5 84 L 29.5 85 L 27.5 86 L 5.5 86 L 4.5 83 Z " /></svg>